<?xml version="1.0" encoding="UTF-8"?>
<svg version="1.1" xmlns="http://www.w3.org/2000/svg" width="1024" height="1024">
<path d="M0 0 C337.92 0 675.84 0 1024 0 C1024 337.92 1024 675.84 1024 1024 C686.08 1024 348.16 1024 0 1024 C0 686.08 0 348.16 0 0 Z " fill="#FEFEFE" transform="translate(0,0)"/>
<path d="M0 0 C3.76082616 0.03170762 7.52168241 0.03422859 11.28262162 0.04012704 C18.37245473 0.05553731 25.4618926 0.09638772 32.55155331 0.14687449 C40.63642714 0.20317253 48.72132196 0.23035509 56.80634367 0.25535166 C73.40817833 0.30731861 90.00961768 0.39500504 106.61115861 0.50696969 C105.35836886 3.70934841 104.06938813 6.58667124 102.21272111 9.48353219 C101.73971574 10.22651559 101.26671037 10.96949899 100.7793715 11.73499703 C100.27011125 12.52599801 99.76085099 13.31699899 99.23615861 14.13196969 C98.14363665 15.84546415 97.05119081 17.55900715 95.95881486 19.27259469 C95.40081193 20.14464547 94.842809 21.01669625 94.26789689 21.91517282 C92.24484784 25.08002526 90.22941475 28.24941077 88.23354936 31.43148446 C87.24416735 32.98573817 86.23542072 34.52796722 85.20107865 36.05266976 C82.38391716 40.28340743 80.29272345 44.13158831 78.80354142 49.00330758 C76.44411153 55.61834571 73.71607592 60.73162138 67.61115861 64.50696969 C54.20261009 68.54193713 38.30886005 66.38042656 24.53712296 65.71577096 C17.06865091 65.37837433 9.59405507 65.21127621 2.12063432 65.0227015 C-1.85219515 64.92190656 -5.81923797 64.77600299 -9.78906417 64.59243417 C-11.6065799 64.5235463 -13.42409983 64.45476908 -15.24162459 64.38612008 C-16.05270675 64.33874703 -16.8637889 64.29137399 -17.6994493 64.24256539 C-24.00143168 64.03820699 -29.20725306 65.56831769 -33.91902804 69.92031598 C-38.44044643 75.04469745 -39.63781921 79.48617591 -39.64712691 86.19973397 C-39.65080262 86.85959737 -39.65447832 87.51946076 -39.65826541 88.19932002 C-39.66821992 90.40359317 -39.6640995 92.60761275 -39.66008162 94.81190133 C-39.66447072 96.3959342 -39.66977354 97.97996476 -39.67592025 99.56399179 C-39.68741642 102.97482423 -39.69287947 106.38559458 -39.69380164 109.79644608 C-39.69574786 115.20859142 -39.71383678 120.62060962 -39.73455977 126.03271127 C-39.78369584 139.4887558 -39.81449965 152.94483521 -39.83586287 166.40095162 C-39.85246464 176.83641028 -39.87553267 187.27176041 -39.91888362 197.70714682 C-39.93694417 202.19582176 -39.94929566 206.68434912 -39.94758582 211.17306352 C-39.93471928 258.68597583 -39.93471928 258.68597583 -47.38884139 274.50696969 C-47.80907577 275.41446969 -48.22931014 276.32196969 -48.66227889 277.25696969 C-54.13885056 288.14959843 -64.01724134 300.39613821 -75.38884139 305.50696969 C-75.38884139 306.16696969 -75.38884139 306.82696969 -75.38884139 307.50696969 C-73.9665616 308.71241718 -73.9665616 308.71241718 -72.07634139 309.94446969 C-55.5878552 322.02629851 -44.70035765 339.20495013 -41.38884139 359.50696969 C-40.3917449 367.07944972 -40.22735821 374.6044026 -40.17790389 382.23353219 C-40.14985616 384.67103915 -40.12119187 387.10853907 -40.09196639 389.54603219 C-40.05064302 393.3487661 -40.01370759 397.15136554 -39.9874742 400.95423532 C-39.95982376 404.65176765 -39.91398286 408.3487234 -39.86540389 412.04603219 C-39.86052459 413.74162774 -39.86052459 413.74162774 -39.85554671 415.47147775 C-39.74667799 422.49169061 -39.35663046 428.86404377 -34.74040389 434.53040719 C-34.17063827 434.97642282 -33.60087264 435.42243844 -33.01384139 435.88196969 C-32.44923202 436.34345407 -31.88462264 436.80493844 -31.30290389 437.28040719 C-15.13636444 447.64018961 16.00633252 439.69339008 33.58772111 435.85755563 C52.40781608 431.45380725 70.62862527 424.66740807 87.66731095 415.54456735 C89.59346111 414.51641636 91.53292213 413.51744762 93.47443986 412.51868844 C104.28275738 406.83542948 114.46577497 400.18822011 124.67365861 393.50696969 C125.40431535 393.03022805 126.13497209 392.55348641 126.88776994 392.06229806 C128.97791548 390.69559888 131.06303931 389.3216126 133.14631486 387.94446969 C133.784003 387.52715081 134.42169114 387.10983193 135.07870317 386.67986703 C138.37770132 384.59992829 138.37770132 384.59992829 140.61115861 381.50696969 C140.057184 381.33753854 139.50320939 381.16810739 138.93244767 380.99354196 C133.4601195 379.25461175 128.42360176 377.14698141 123.36115861 374.44446969 C122.62953507 374.05452828 121.89791154 373.66458688 121.14411759 373.26282907 C110.11005415 367.21123154 100.74986642 359.10810645 91.61115861 350.50696969 C90.94858048 349.90884469 90.28600236 349.31071969 89.60334611 348.69446969 C66.92483582 327.39319687 53.73049195 294.50892211 52.45466447 263.73182321 C51.85184784 243.83008994 52.1707916 224.81426585 57.61115861 205.50696969 C57.98071671 204.1725483 57.98071671 204.1725483 58.35774064 202.81116891 C61.40674263 192.13474739 65.54283842 181.99217368 70.11115861 171.88196969 C70.54960099 170.91058053 70.98804338 169.93919137 71.43977189 168.93836617 C76.27097703 158.58387998 82.54673449 149.33269771 89.36115861 140.19446969 C89.96895158 139.3754316 90.57674455 138.55639352 91.20295548 137.7125361 C100.44902571 125.30116638 110.17752725 113.32060954 120.04524064 101.40052438 C125.20168678 95.16519599 130.30539773 88.8866 135.40632463 82.60584664 C136.54051125 81.20951235 137.67511247 79.81351471 138.81013322 78.41785836 C141.23327989 75.43795181 143.65246981 72.45549568 146.05647111 69.46009469 C150.80238806 63.57447726 155.77022187 57.96231185 160.91193986 52.42493844 C163.40591601 49.72884555 165.8574148 47.00074285 168.29865861 44.25696969 C175.52231147 36.2406328 183.08718958 29.14340256 191.61115861 22.50696969 C192.39104142 21.89853219 193.17092423 21.29009469 193.97443986 20.66321969 C205.78443867 11.92977519 219.37571607 5.97993923 233.61115861 2.50696969 C234.27587174 2.33238229 234.94058488 2.15779489 235.62544084 1.97791696 C245.89511997 -0.3087519 256.44738266 0.25832333 266.90412736 0.31165719 C269.06316838 0.31539278 271.22221111 0.31823717 273.38125443 0.32023263 C279.03154615 0.32782607 284.68173313 0.34743725 290.3319838 0.36964059 C297.12865623 0.3938127 303.9253639 0.40290044 310.72206712 0.4145472 C321.01850353 0.43386447 331.31471066 0.47221701 341.61115861 0.50696969 C341.61115861 21.62696969 341.61115861 42.74696969 341.61115861 64.50696969 C332.23516252 64.52823922 332.23516252 64.52823922 322.66975236 64.54993844 C318.68206718 64.57002311 314.69449444 64.59156665 310.70686173 64.61829782 C304.39374806 64.66048105 298.08091981 64.69760275 291.76765275 64.70252633 C286.67099275 64.70684173 281.57497472 64.73557027 276.47851586 64.78040147 C274.54556432 64.79327368 272.61253553 64.79772114 270.67954659 64.79312348 C250.25412896 64.75589742 233.42182326 69.50267972 218.11506486 83.92493844 C211.12106661 91.13715816 204.92446393 99.06043344 198.69318986 106.92884469 C196.28031178 109.91664869 193.79294887 112.83731347 191.29865861 115.75696969 C186.51982841 121.3626986 181.94575 127.10643205 177.41975236 132.91712594 C174.56293675 136.5818894 171.65064395 140.20053528 168.73615861 143.81946969 C163.88086292 149.85961835 159.15670445 155.991499 154.47370744 162.16590524 C151.3610055 166.25828181 148.18918707 170.28892394 144.93806291 174.27210641 C123.13635837 201.04711611 112.26250029 230.5706772 114.61115861 265.50696969 C117.72472205 294.95609061 130.75288955 322.47558967 153.97443986 341.43665719 C164.11103452 348.97039421 174.0584531 351.78901828 186.37483048 353.41859078 C195.38914762 354.64922014 203.184712 356.77450181 209.61115861 363.50696969 C213.91568675 370.5658422 215.83530798 377.14578539 213.96272111 385.34681344 C209.48780946 400.20581495 198.64069332 411.18969656 187.20881486 421.22571969 C184.49122432 423.61229544 181.83296252 426.05571943 179.17365861 428.50696969 C173.80986819 433.38177501 168.27435627 437.98579808 162.61115861 442.50696969 C161.71912736 443.25204782 160.82709611 443.99712594 159.90803361 444.76478219 C149.91838123 452.85800323 138.87932887 459.23767461 127.77424455 465.67152047 C125.76936611 466.83489467 123.7693608 468.00674183 121.77619767 469.19007516 C89.2694532 488.46623221 51.08368712 498.1899369 13.61115861 501.50696969 C12.44326798 501.61911813 11.27537736 501.73126657 10.07209611 501.84681344 C-18.6373101 504.21226113 -48.81665888 504.1771975 -72.63884139 485.69446969 C-74.24256054 484.32210675 -75.82584116 482.92553425 -77.38884139 481.50696969 C-78.23188827 480.75673532 -79.07493514 480.00650094 -79.94352889 479.23353219 C-94.70341062 465.37090771 -102.66601759 446.41923175 -103.65980697 426.30842233 C-103.77077089 422.69865037 -103.78450063 419.09062661 -103.76896644 415.47937799 C-103.75965459 413.11543554 -103.77029574 410.75225277 -103.78558517 408.38834786 C-103.82015003 402.53436059 -103.82744427 396.68044834 -103.8254869 390.82636666 C-103.82381976 385.83818033 -103.83751906 380.85056327 -103.87396598 375.86250329 C-103.88472933 373.54350087 -103.87271228 371.22532808 -103.86013961 368.90635324 C-103.86904303 367.48268979 -103.87911706 366.05903303 -103.89055037 364.63538766 C-103.89038421 363.40013345 -103.89021804 362.16487924 -103.89004683 360.89219308 C-104.78981884 354.78561229 -108.65683209 350.68007713 -113.32634139 346.94446969 C-121.54670647 341.21512433 -130.74380426 339.29643107 -140.42033553 337.38172555 C-150.3068124 335.35478365 -158.10109472 331.77477275 -164.57634139 323.81946969 C-169.13965491 315.47962084 -171.25117137 306.12540393 -168.62712264 296.79993844 C-165.66163334 288.98183029 -161.62227136 281.99931041 -154.38884139 277.50696969 C-147.89400167 274.78447523 -141.4290264 273.43927876 -134.45134139 272.69446969 C-123.14303025 271.2320794 -113.93539598 266.3332985 -106.74431014 257.42493844 C-98.24778885 245.40248324 -103.23521944 217.36191338 -103.22017646 202.76964211 C-103.21417662 197.42918439 -103.19755842 192.08879017 -103.17883468 186.74836373 C-103.17250063 184.90742519 -103.16617497 183.06648663 -103.15985751 181.22554803 C-103.1566917 180.30483561 -103.15352589 179.38412319 -103.15026414 178.4355104 C-103.10843902 166.03567528 -103.07518536 153.6358748 -103.06291366 141.2359736 C-103.05450341 132.82321153 -103.03191997 124.41061277 -102.99355799 115.99793243 C-102.97392893 111.56492792 -102.96134935 107.1321667 -102.96639228 102.69911599 C-102.97107691 98.53237419 -102.95702816 94.36609469 -102.92938018 90.19944596 C-102.92253722 88.68349181 -102.92226615 87.16748913 -102.92958045 85.65153718 C-103.03211811 61.98629572 -94.57230854 42.24274097 -78.15446639 25.25306344 C-71.84360371 18.98676899 -65.19599402 14.14609629 -57.45134139 9.81946969 C-56.83887557 9.46280221 -56.22640975 9.10613473 -55.59538436 8.73865914 C-38.16950778 -0.53612749 -19.16944513 -0.18948628 0 0 Z " fill="#108FE4" transform="translate(328.38884139060974,205.49303030967712)"/>
<path d="M0 0 C0.95477234 -0.01053406 1.90954468 -0.02106812 2.89324951 -0.03192139 C19.51856845 -0.17403037 34.86220392 1.5196048 49.75 9.5 C50.71164062 9.99113281 51.67328125 10.48226563 52.6640625 10.98828125 C60.84771016 15.4184471 67.21286491 20.98143631 73.75 27.5 C74.86375 28.57894531 74.86375 28.57894531 76 29.6796875 C87.55624459 41.64220632 94.83901419 59.32437798 94.8918457 75.8815918 C94.89888016 77.12696213 94.90591461 78.37233246 94.91316223 79.65544128 C94.91497812 80.31387716 94.91679401 80.97231304 94.91866493 81.65070152 C94.92590071 83.73360781 94.9416203 85.81628792 94.96000671 87.89912415 C95.01213416 93.81805253 95.06037191 99.73685299 95.07592773 105.65600586 C95.08609296 109.28771772 95.11562699 112.91885125 95.15724754 116.55033302 C95.16943926 117.92278451 95.17470078 119.29531809 95.17244911 120.66782188 C95.16114669 129.80775525 95.42266543 139.33870373 101.5670929 146.6672821 C106.98146661 151.96878306 113.56931778 154.31410714 120.73828125 156.34765625 C129.28868593 158.85736842 135.50809491 162.39225025 140.37890625 170.06640625 C144.74259743 178.40839138 146.26961752 187.10023936 144.06640625 196.37890625 C140.87547335 205.89874342 136.40864583 212.21152846 127.59375 217.13671875 C124.51066132 218.61473791 121.39578141 219.81938243 118.1875 221 C108.99401577 224.39618123 100.29646218 229.40707565 95.75 238.5 C95.65120377 240.89714908 95.61273529 243.26542465 95.61869812 245.66288757 C95.61658241 246.40947012 95.61446669 247.15605267 95.61228687 247.92525893 C95.60626958 250.44066566 95.60728828 252.95602247 95.6081543 255.47143555 C95.60512368 257.27003057 95.6016025 259.06862483 95.59762573 260.86721802 C95.58972458 264.74955519 95.58458705 268.63188312 95.58133507 272.51422691 C95.57542637 278.66403895 95.55888403 284.81379305 95.53999329 290.96357727 C95.5336552 293.06975456 95.52732958 295.17593189 95.52101612 297.28210926 C95.51785031 298.33722788 95.5146845 299.39234651 95.51142275 300.47943842 C95.4693847 314.79886311 95.43641308 329.11826193 95.42407227 343.43774414 C95.41566687 353.09153949 95.39307876 362.74519243 95.3547166 372.39891654 C95.33502765 377.50397974 95.32252719 382.60883039 95.32755089 387.71393394 C95.33222983 392.52801806 95.31821632 397.34170112 95.29053879 402.1557045 C95.28367935 403.91191733 95.2834431 405.6681721 95.29073906 407.42438316 C95.34303822 421.44202838 93.64520898 434.28709085 86.9375 446.875 C86.59493164 447.53927002 86.25236328 448.20354004 85.89941406 448.88793945 C83.06620632 454.23251821 79.70979435 458.92738034 75.75 463.5 C75.12351562 464.3146875 74.49703125 465.129375 73.8515625 465.96875 C61.45720116 480.89727444 40.4728381 490.30935641 21.75 493.5 C16.78412855 493.87958324 11.85020396 493.88130213 6.87182617 493.84057617 C5.43150348 493.83972754 3.99117949 493.84020964 2.55085754 493.84190369 C-1.31613499 493.84275585 -5.18284188 493.82525816 -9.04976869 493.80418181 C-13.10695036 493.7852834 -17.16414035 493.7836543 -21.22135925 493.78010559 C-28.88500402 493.77082345 -36.54851865 493.74626223 -44.21210641 493.71605712 C-52.94499234 493.68239299 -61.67788486 493.66599706 -70.41081965 493.65097082 C-88.35728656 493.61970873 -106.30363277 493.56702374 -124.25 493.5 C-122.56258457 489.03733558 -120.25218508 485.37285603 -117.5078125 481.49609375 C-116.50978769 480.06560687 -115.51276758 478.63441865 -114.51660156 477.20263672 C-113.98635376 476.44198914 -113.45610596 475.68134155 -112.90979004 474.89764404 C-110.00298897 470.69863447 -107.15555948 466.45974868 -104.3046875 462.22265625 C-103.71721741 461.35079681 -103.12974731 460.47893738 -102.5244751 459.58065796 C-100.10072329 455.98337525 -97.67852554 452.38504821 -95.25683594 448.78637695 C-93.46122365 446.11867078 -91.66428006 443.45186537 -89.8671875 440.78515625 C-89.04080276 439.55576073 -89.04080276 439.55576073 -88.19772339 438.30152893 C-87.69274323 437.55241745 -87.18776306 436.80330597 -86.66748047 436.03149414 C-86.22322723 435.37137833 -85.778974 434.71126251 -85.32125854 434.03114319 C-84.25 432.5 -84.25 432.5 -83.25 431.5 C-80.28964547 431.39594313 -77.3518558 431.35639076 -74.39086914 431.3581543 C-72.99559998 431.35294266 -72.99559998 431.35294266 -71.57214355 431.34762573 C-69.54340785 431.34025208 -67.51466399 431.33491532 -65.48591805 431.33133507 C-62.26955218 431.32418406 -59.05334017 431.30852479 -55.83702087 431.28999329 C-46.68881427 431.23748058 -37.54068783 431.18960263 -28.39233398 431.17407227 C-22.80187498 431.16395827 -17.21179677 431.13453851 -11.62148857 431.09275246 C-9.49460171 431.08047746 -7.36766093 431.07531477 -5.24073982 431.07755089 C-2.25131186 431.07991881 0.73703687 431.0576212 3.72631836 431.0300293 C4.59581619 431.03663071 5.46531403 431.04323212 6.36116028 431.05003357 C13.48271 430.94286189 20.59855476 429.34558574 26.00390625 424.46484375 C26.65166016 423.46130859 26.65166016 423.46130859 27.3125 422.4375 C27.76753906 421.76589844 28.22257812 421.09429688 28.69140625 420.40234375 C30.93430761 416.37174242 30.89245532 412.67796802 30.88130188 408.20339966 C30.88341759 407.45455155 30.88553331 406.70570345 30.88771313 405.93416297 C30.89371897 403.41719433 30.89271254 400.90027574 30.8918457 398.38330078 C30.89487699 396.58131322 30.89839836 394.77932642 30.90237427 392.9773407 C30.91026889 389.0911971 30.91541044 385.2050627 30.91866493 381.31891251 C30.92457645 375.16536911 30.94112043 369.01188353 30.96000671 362.85836792 C30.96634451 360.75072674 30.97267013 358.64308552 30.97898388 356.53544426 C30.98214969 355.4797278 30.9853155 354.42401134 30.98857725 353.33630347 C31.0306196 339.00969452 31.06360026 324.6831118 31.07592773 310.35644531 C31.08432646 300.69497097 31.10688786 291.03363917 31.1452834 281.37223613 C31.16499028 276.26278018 31.17746667 271.15353705 31.17244911 266.04404068 C31.16777883 261.22912834 31.18173731 256.41461812 31.20946121 251.59978676 C31.21633429 249.84112048 31.21654182 248.08241227 31.20926094 246.32374763 C31.15261464 231.09170592 33.54963947 219.09210492 42.75 206.5 C43.19988281 205.86578125 43.64976562 205.2315625 44.11328125 204.578125 C48.79497805 198.55682763 55.93694748 192.90652626 62.75 189.5 C62.04875 188.95472656 61.3475 188.40945313 60.625 187.84765625 C43.07952522 173.90186448 34.31740376 158.84605173 31.75 136.5 C31.50163403 132.096239 31.47267016 127.70686052 31.4765625 123.296875 C31.45629225 120.82812031 31.43544186 118.35937033 31.4140625 115.890625 C31.39142059 112.05725058 31.37496062 108.22406341 31.36914062 104.390625 C31.35960003 100.65071145 31.32583243 96.91160632 31.2890625 93.171875 C31.29663071 91.46532745 31.29663071 91.46532745 31.30435181 89.7243042 C31.20909131 81.97804149 30.20377143 75.15927414 24.71484375 69.34375 C24.04582031 68.9003125 23.37679688 68.456875 22.6875 68 C22.01589844 67.5359375 21.34429688 67.071875 20.65234375 66.59375 C16.35692226 64.12410315 12.13705256 64.30697401 7.33203125 64.26171875 C6.49113449 64.25187958 5.65023773 64.24204041 4.78385925 64.23190308 C-13.54960366 64.06196453 -31.34471188 64.06610012 -49.25 68.5 C-50.25836914 68.74669434 -51.26673828 68.99338867 -52.30566406 69.24755859 C-84.14234944 77.23369356 -116.35164059 89.32246598 -143.25 108.5 C-143.58 109.16 -143.91 109.82 -144.25 110.5 C-143.41597656 110.73847656 -142.58195313 110.97695313 -141.72265625 111.22265625 C-137.69253665 112.7050512 -134.30706579 114.65379975 -130.6875 116.9375 C-129.98931152 117.37779541 -129.29112305 117.81809082 -128.57177734 118.27172852 C-102.8358659 134.8756368 -84.70045207 160.57859472 -75.25 189.5 C-75.01796875 190.20302246 -74.7859375 190.90604492 -74.546875 191.63037109 C-60.99774564 233.30335299 -68.67171909 276.02111531 -88.03125 314.42578125 C-95.08674929 327.97692251 -102.9723578 341.13749557 -113.25 352.5 C-113.98734375 353.32113281 -114.7246875 354.14226562 -115.484375 354.98828125 C-116.98533643 356.65227815 -118.49050096 358.31249411 -120 359.96875 C-122.32862053 362.5884481 -124.54562947 365.2751531 -126.75 368 C-130.36032442 372.46276213 -134.13427929 376.72719533 -138 380.96875 C-140.32862053 383.5884481 -142.54562947 386.2751531 -144.75 389 C-148.36149134 393.46420457 -152.13660694 397.73002114 -156.00390625 401.97265625 C-158.31187598 404.56962393 -160.50555863 407.23404013 -162.6875 409.9375 C-166.54941675 414.71284402 -170.62674224 419.23667685 -174.78515625 423.75390625 C-177.17707297 426.41875166 -179.44254884 429.14831825 -181.6875 431.9375 C-185.82477837 437.06333161 -190.21340703 441.89759241 -194.69140625 446.72265625 C-196.7795281 448.98930455 -198.81006496 451.28332891 -200.8125 453.625 C-220.01535961 475.60362842 -246.00692459 491.65187479 -275.65578079 493.66320419 C-281.67740119 493.90303234 -287.69785905 493.84606486 -293.72265625 493.79296875 C-295.626497 493.787356 -297.53034216 493.78309387 -299.43418884 493.78010559 C-304.38412983 493.76878878 -309.33379607 493.73943916 -314.28363037 493.70599365 C-320.25526504 493.66953208 -326.22699287 493.65606877 -332.19870758 493.63863373 C-341.21599466 493.60979061 -350.23268193 493.55221265 -359.25 493.5 C-359.25 473.37 -359.25 453.24 -359.25 432.5 C-354.14273437 432.45101563 -349.03546875 432.40203125 -343.7734375 432.3515625 C-340.51039855 432.31611793 -337.24738361 432.2801249 -333.984375 432.2421875 C-328.82132673 432.18221053 -323.65831152 432.12410937 -318.49511719 432.078125 C-314.32581616 432.04086414 -310.15670431 431.99440252 -305.9875679 431.94193649 C-304.4082539 431.92360653 -302.8288997 431.90842251 -301.24952316 431.89665604 C-279.03295008 431.72543984 -262.43186941 428.68290169 -246 412.5 C-241.93028415 408.28994912 -238.0375376 403.9638836 -234.25 399.5 C-232.29371797 397.20657765 -230.33453323 394.91564465 -228.375 392.625 C-227.85526611 392.01648193 -227.33553223 391.40796387 -226.80004883 390.78100586 C-223.77113478 387.2435638 -220.69848006 383.75603677 -217.5625 380.3125 C-214.53287132 376.97772886 -211.64391908 373.56712361 -208.8125 370.0625 C-204.95174863 365.288597 -200.87562925 360.76611572 -196.71875 356.25 C-194.30621896 353.56262366 -192.0174379 350.81034556 -189.75 348 C-186.69651321 344.21539666 -183.54331699 340.57792463 -180.25 337 C-176.21215559 332.6080677 -172.4047208 328.08748891 -168.6640625 323.44140625 C-166.42573452 320.71412313 -164.12838012 318.05622559 -161.80297852 315.40380859 C-136.62962389 286.56981052 -128.21185168 254.46398346 -130.25 216.5 C-130.90483164 210.61822767 -132.3849161 205.10096844 -134.25 199.5 C-134.56348389 198.49670654 -134.56348389 198.49670654 -134.88330078 197.47314453 C-142.59530221 173.06624862 -159.45075228 153.31905026 -182.13867188 141.51757812 C-190.74387102 137.21064562 -198.94815887 134.70393072 -208.41796875 133.16015625 C-217.95454471 131.51725988 -226.99170684 129.4008898 -233.25 121.5 C-236.21215026 115.59525163 -236.44018337 108.50334406 -234.5625 102.1875 C-233.60509056 100.14502653 -232.53425838 98.35323362 -231.25 96.5 C-230.88390625 95.9534375 -230.5178125 95.406875 -230.140625 94.84375 C-225.09014563 88.23448069 -217.82972098 83.47538773 -211.25 78.5 C-210.49847656 77.92685059 -209.74695313 77.35370117 -208.97265625 76.76318359 C-161.22562825 40.35509471 -111.53717356 15.97357909 -52.25 4.5 C-50.61925537 4.18023193 -50.61925537 4.18023193 -48.95556641 3.85400391 C-32.65387336 0.79364438 -16.5408886 0.09299283 0 0 Z " fill="#ED6765" transform="translate(729.25,322.5)"/>
<path d="M0 0 C2.15904102 0.00373559 4.31808375 0.00657998 6.47712708 0.00857544 C12.12741879 0.01616888 17.77760577 0.03578006 23.42785645 0.0579834 C30.22452887 0.08215551 37.02123654 0.09124325 43.81793976 0.10289001 C54.11437617 0.12220728 64.4105833 0.16055982 74.70703125 0.1953125 C74.70703125 21.3153125 74.70703125 42.4353125 74.70703125 64.1953125 C65.33103516 64.21658203 65.33103516 64.21658203 55.765625 64.23828125 C51.77793982 64.25836592 47.79036708 64.27990946 43.80273438 64.30664062 C37.4896207 64.34882386 31.17679245 64.38594556 24.86352539 64.39086914 C19.76686539 64.39518454 14.67084736 64.42391308 9.5743885 64.46874428 C7.64143696 64.48161649 5.70840818 64.48606395 3.77541924 64.48146629 C-16.6499984 64.44424023 -33.4823041 69.19102253 -48.7890625 83.61328125 C-55.78306075 90.82550097 -61.97966343 98.74877625 -68.2109375 106.6171875 C-70.62381558 109.6049915 -73.11117849 112.52565628 -75.60546875 115.4453125 C-80.38429895 121.05104141 -84.95837736 126.79477486 -89.484375 132.60546875 C-92.34119061 136.27023221 -95.25348341 139.88887809 -98.16796875 143.5078125 C-103.02326444 149.54796116 -107.7474229 155.67984181 -112.43041992 161.85424805 C-115.54312186 165.94662462 -118.71494029 169.97726675 -121.96606445 173.96044922 C-143.76776899 200.73545892 -154.64162707 230.25902001 -152.29296875 265.1953125 C-149.1794053 294.64443342 -136.15123781 322.16393248 -112.9296875 341.125 C-105.24251125 346.83827613 -96.8219039 350.87028306 -87.29296875 352.1953125 C-88.51530321 355.86231587 -89.84313784 356.69097512 -92.85546875 359.0703125 C-93.84160156 359.85664062 -94.82773437 360.64296875 -95.84375 361.453125 C-96.39111816 361.88657227 -96.93848633 362.32001953 -97.50244141 362.76660156 C-99.46013241 364.32869697 -101.39918827 365.91202105 -103.3359375 367.5 C-104.03195068 368.06992676 -104.72796387 368.63985352 -105.44506836 369.22705078 C-106.81244853 370.34698813 -108.17918011 371.46771797 -109.54516602 372.58935547 C-110.83072698 373.63730243 -112.12480434 374.67490039 -113.42773438 375.70117188 C-114.65598866 376.68506144 -115.85459832 377.7073304 -117.01757812 378.76757812 C-119.42891378 380.81818462 -121.13558487 382.17410105 -124.37109375 382.23339844 C-130.53404766 381.08598228 -136.06358684 378.13251547 -141.54296875 375.1953125 C-142.92222534 374.46272217 -142.92222534 374.46272217 -144.3293457 373.71533203 C-151.9847637 369.55113961 -158.69488813 364.88777421 -165.29296875 359.1953125 C-166.19273437 358.421875 -167.0925 357.6484375 -168.01953125 356.8515625 C-170.48705002 354.67477857 -172.89700331 352.4503388 -175.29296875 350.1953125 C-175.95554687 349.5971875 -176.618125 348.9990625 -177.30078125 348.3828125 C-199.97929154 327.08153968 -213.17363541 294.19726492 -214.44946289 263.42016602 C-215.05227952 243.51843275 -214.73333576 224.50260866 -209.29296875 205.1953125 C-208.92341064 203.86089111 -208.92341064 203.86089111 -208.54638672 202.49951172 C-205.49738473 191.8230902 -201.36128894 181.68051649 -196.79296875 171.5703125 C-196.35452637 170.59892334 -195.91608398 169.62753418 -195.46435547 168.62670898 C-190.63315033 158.27222279 -184.35739287 149.02104052 -177.54296875 139.8828125 C-176.93517578 139.06377441 -176.32738281 138.24473633 -175.70117188 137.40087891 C-166.45510165 124.98950919 -156.72660011 113.00895235 -146.85888672 101.08886719 C-141.70244058 94.8535388 -136.59872963 88.57494281 -131.49780273 82.29418945 C-130.36361611 80.89785516 -129.22901489 79.50185752 -128.09399414 78.10620117 C-125.67084747 75.12629462 -123.25165755 72.14383849 -120.84765625 69.1484375 C-116.1017393 63.26282007 -111.13390549 57.65065466 -105.9921875 52.11328125 C-103.49821135 49.41718836 -101.04671256 46.68908566 -98.60546875 43.9453125 C-91.38181589 35.92897561 -83.81693778 28.83174537 -75.29296875 22.1953125 C-74.12314453 21.28265625 -74.12314453 21.28265625 -72.9296875 20.3515625 C-61.11968869 11.618118 -47.52841129 5.66828203 -33.29296875 2.1953125 C-32.62825562 2.0207251 -31.96354248 1.8461377 -31.27868652 1.66625977 C-21.00900739 -0.62040909 -10.4567447 -0.05333386 0 0 Z " fill="#6946BC" transform="translate(595.29296875,205.8046875)"/>
<path d="M0 0 C3.76886944 0.0252924 7.53775663 0.02737728 11.30669785 0.03210163 C18.41781143 0.04445075 25.52867408 0.07716094 32.639678 0.11749959 C40.74626787 0.1624711 48.85287078 0.18426762 56.95955467 0.20428133 C73.61162929 0.24590253 90.26345266 0.31609448 106.91534042 0.40557575 C105.66255067 3.60795447 104.37356995 6.4852773 102.51690292 9.38213825 C102.04389755 10.12512165 101.57089218 10.86810505 101.08355331 11.6336031 C100.57429306 12.42460407 100.06503281 13.21560505 99.54034042 14.03057575 C98.44781847 15.74407021 97.35537263 17.45761321 96.26299667 19.17120075 C95.70499374 20.04325153 95.14699081 20.91530231 94.5720787 21.81377888 C92.54902965 24.97863133 90.53359657 28.14801684 88.53773117 31.33009052 C87.54834917 32.88434424 86.53960253 34.42657328 85.50526047 35.95127583 C82.68809898 40.18201349 80.59690527 44.03019437 79.10772324 48.90191364 C76.74829334 55.51695177 74.02025773 60.63022744 67.91534042 64.40557575 C54.50679191 68.44054319 38.61304187 66.27903263 24.84130478 65.61437702 C17.37283272 65.2769804 9.89823688 65.10988227 2.42481613 64.92130756 C-1.54801333 64.82051262 -5.51505616 64.67460905 -9.48488235 64.49104023 C-11.30239808 64.42215236 -13.11991801 64.35337514 -14.93744278 64.28472614 C-15.74852493 64.2373531 -16.55960709 64.18998005 -17.39526749 64.14117146 C-22.61902848 63.97177723 -25.96552852 64.93731201 -30.46092892 67.63248062 C-30.99676003 67.88760201 -31.53259115 68.14272341 -32.08465958 68.40557575 C-32.74465958 68.07557575 -33.40465958 67.74557575 -34.08465958 67.40557575 C-32.31404285 64.0856694 -31.18807703 63.43814584 -27.53277969 62.28695393 C-22.96803505 61.24562727 -18.57983812 61.13725471 -13.9147377 61.17852497 C-13.03574814 61.17823292 -12.15675858 61.17794086 -11.25113297 61.17763996 C-8.37262147 61.17902297 -5.49437533 61.19453533 -2.61590958 61.21026325 C-0.60952267 61.21399704 1.39686607 61.21684229 3.40325546 61.21883869 C8.66396818 61.2264463 13.9245691 61.24606997 19.18523788 61.26824665 C24.56140252 61.28876714 29.93758535 61.29785364 35.31377792 61.3079195 C45.847681 61.32931869 56.38150139 61.36341975 66.91534042 61.40557575 C67.24534042 60.41557575 67.57534042 59.42557575 67.91534042 58.40557575 C68.57534042 58.40557575 69.23534042 58.40557575 69.91534042 58.40557575 C70.20409042 57.49807575 70.49284042 56.59057575 70.79034042 55.65557575 C71.68065818 53.08354668 72.63028455 50.79210809 73.91534042 48.40557575 C74.57534042 48.40557575 75.23534042 48.40557575 75.91534042 48.40557575 C75.91534042 47.08557575 75.91534042 45.76557575 75.91534042 44.40557575 C76.90534042 44.40557575 77.89534042 44.40557575 78.91534042 44.40557575 C79.16412949 43.71334919 79.41291855 43.02112263 79.66924667 42.3079195 C81.10585306 38.96184256 82.90661276 36.04507257 84.85284042 32.96807575 C87.44474924 28.86462385 89.80756495 24.77842337 91.91534042 20.40557575 C92.24534042 19.74557575 92.57534042 19.08557575 92.91534042 18.40557575 C93.57534042 18.40557575 94.23534042 18.40557575 94.91534042 18.40557575 C95.25565292 17.41557575 95.25565292 17.41557575 95.60284042 16.40557575 C97.04163347 13.11690594 98.83032313 10.26818373 100.79424667 7.27276325 C102.07185719 5.29807666 102.07185719 5.29807666 102.91534042 2.40557575 C85.78142865 2.46625599 68.64768674 2.54385797 51.51394653 2.64129066 C43.55742599 2.68614695 35.60094919 2.7255847 27.64434433 2.7520113 C20.70474117 2.77507411 13.76527763 2.80856362 6.8257854 2.85427731 C3.1555559 2.87809858 -0.51453627 2.89689965 -4.18484116 2.90318966 C-8.29454906 2.91042893 -12.40378261 2.94095927 -16.51337051 2.97320271 C-17.71387543 2.97176762 -18.91438034 2.97033253 -20.15126419 2.96885395 C-26.93968215 3.04380622 -32.92686796 3.8461135 -39.44849396 5.76452637 C-42.098242 6.40887866 -44.36970091 6.52137101 -47.08465958 6.40557575 C-36.82824024 -3.85084359 -13.37900348 -0.10517532 0 0 Z " fill="#1881F7" transform="translate(328.084659576416,205.5944242477417)"/>
<path d="M0 0 C0.66 0 1.32 0 2 0 C0.50774056 3.59755519 -1.51258933 5.58851747 -4.4375 8.125 C-5.3346875 8.91132812 -6.231875 9.69765625 -7.15625 10.5078125 C-8.0946875 11.33023438 -9.033125 12.15265625 -10 13 C-11.81509655 14.6638385 -13.62759351 16.33051729 -15.4375 18 C-20.80129042 22.87480531 -26.33680234 27.47882839 -32 32 C-33.33804688 33.11761719 -33.33804688 33.11761719 -34.703125 34.2578125 C-44.69277738 42.35103354 -55.73182974 48.73070492 -66.83691406 55.16455078 C-68.8417925 56.32792498 -70.8417978 57.49977214 -72.83496094 58.68310547 C-105.34170541 77.95926252 -143.52747149 87.68296721 -181 91 C-182.75183594 91.16822266 -182.75183594 91.16822266 -184.5390625 91.33984375 C-205.09611537 93.03359641 -228.75377763 94.70883814 -248 86 C-249.83203125 84.37109375 -249.83203125 84.37109375 -251 83 C-250.3709375 83.19335938 -249.741875 83.38671875 -249.09375 83.5859375 C-246.40004401 84.4054083 -243.70099294 85.20490251 -241 86 C-239.1128125 86.556875 -239.1128125 86.556875 -237.1875 87.125 C-227.12586376 89.54198543 -216.38914224 89.16258495 -206.10424805 89.13037109 C-204.04012937 89.12494115 -201.97622211 89.13039234 -199.91210938 89.13671875 C-198.57812453 89.13605892 -197.24413981 89.13477974 -195.91015625 89.1328125 C-194.13330444 89.13112061 -194.13330444 89.13112061 -192.32055664 89.12939453 C-189.12514864 89.00487676 -186.14598058 88.54453828 -183 88 C-181.56167918 87.96269801 -180.12167338 87.96214844 -178.68359375 88.0078125 C-174.05256526 88.05612283 -169.6345531 87.5808708 -165.0625 86.875 C-164.21985596 86.74593262 -163.37721191 86.61686523 -162.5090332 86.48388672 C-141.75530465 83.13016512 -119.9401834 78.4700917 -101 69 C-100.34 69.33 -99.68 69.66 -99 70 C-98.67 69.34 -98.34 68.68 -98 68 C-95.95756472 67.36614078 -93.90867481 66.98173496 -91.8125 66.5625 C-91.214375 66.376875 -90.61625 66.19125 -90 66 C-89.67 65.34 -89.34 64.68 -89 64 C-87.22144796 63.05790983 -85.40149035 62.19286047 -83.5625 61.375 C-82.57378906 60.92898438 -81.58507812 60.48296875 -80.56640625 60.0234375 C-78 59 -78 59 -76 59 C-76 58.34 -76 57.68 -76 57 C-74.73349609 56.38318359 -74.73349609 56.38318359 -73.44140625 55.75390625 C-69.24257535 53.61397994 -65.18590934 51.25653455 -61.12304688 48.87304688 C-58.49971944 47.35306855 -55.95643841 45.98299023 -53.12890625 44.87890625 C-50.82719406 44.20112547 -50.82719406 44.20112547 -50 42 C-48.61404723 40.99776143 -47.19119759 40.04603025 -45.75 39.125 C-43.05700257 37.37819086 -40.56407364 35.6475489 -38.0625 33.625 C-36 32 -36 32 -34 32 C-34 31.34 -34 30.68 -34 30 C-32.3203125 28.59765625 -32.3203125 28.59765625 -30.125 27.0625 C-27.32503965 25.10052062 -25.93937238 23.90905857 -24 21 C-23.34 21.33 -22.68 21.66 -22 22 C-22 21.34 -22 20.68 -22 20 C-19.54302645 17.90567937 -16.96609775 16.00593649 -14.3828125 14.0703125 C-12.06991103 12.06074237 -11.22522251 10.72785388 -10 8 C-7.65436271 6.39509027 -5.34443908 5.15308403 -2.75 4 C-0.64862526 3.05720054 -0.64862526 3.05720054 0 0 Z " fill="#0C9CB6" transform="translate(523,616)"/>
<path d="M0 0 C0.99 0.33 1.98 0.66 3 1 C-3.17864782 8.24164099 -14.84365755 11.92091631 -24 13 C-24.75410156 13.10828125 -25.50820313 13.2165625 -26.28515625 13.328125 C-50.31245392 16.64223502 -76.79911468 14 -101 14 C-101.33 32.81 -101.66 51.62 -102 71 C-89.36036023 71.05840376 -89.36036023 71.05840376 -76.72070312 71.09765625 C-71.54723891 71.10950068 -66.37384704 71.12333636 -61.20043945 71.15087891 C-32.22533705 72.51923551 -32.22533705 72.51923551 -4 68 C-3.67 68.66 -3.34 69.32 -3 70 C-14.87229143 72.98590023 -26.08819919 73.39976338 -38.27734375 73.29296875 C-40.18404299 73.2873586 -42.09074663 73.28309523 -43.99745178 73.28010559 C-48.96386101 73.26876841 -53.92999802 73.23939995 -58.89630127 73.20599365 C-64.88290534 73.16958887 -70.86960152 73.15607852 -76.8562851 73.13863373 C-85.90437815 73.10975366 -94.95187643 73.05218956 -104 73 C-104 52.87 -104 32.74 -104 12 C-96.33910156 11.92652344 -96.33910156 11.92652344 -88.5234375 11.8515625 C-85.26039855 11.81611793 -81.99738361 11.7801249 -78.734375 11.7421875 C-73.57132673 11.68221053 -68.40831152 11.62410937 -63.24511719 11.578125 C-59.07581616 11.54086414 -54.90670431 11.49440252 -50.7375679 11.44193649 C-49.1582539 11.42360653 -47.5788997 11.40842251 -45.99952316 11.39665604 C-23.30845384 11.35275609 -23.30845384 11.35275609 -3.0625 2.1875 C-2.051875 1.465625 -1.04125 0.74375 0 0 Z " fill="#189DB2" transform="translate(474,743)"/>
<path d="M0 0 C0.33 0 0.66 0 1 0 C1.20060919 22.86106917 1.38392001 45.72221861 1.54658794 68.58359051 C1.62252014 79.19830768 1.70413146 89.81292466 1.79907227 100.42749023 C1.88179969 109.67818198 1.95391244 118.92888485 2.01323253 128.17975742 C2.04501963 133.07890029 2.08215306 137.97787206 2.13199425 142.87686729 C2.17873062 147.48715878 2.21128246 152.09733204 2.2329216 156.70780754 C2.24337317 158.40054629 2.25902268 160.09326209 2.28024101 161.78590012 C2.30842976 164.09646079 2.31794072 166.40637628 2.32279968 168.71708679 C2.33293941 170.01036235 2.34307913 171.30363791 2.35352612 172.63610363 C1.97470757 176.24066431 1.22656828 178.16297623 -1 181 C-1.66 181 -2.32 181 -3 181 C-3.27199219 181.58523438 -3.54398438 182.17046875 -3.82421875 182.7734375 C-6.67895786 188.17942185 -10.14564094 192.04854698 -16 194 C-16.66 194.99 -17.32 195.98 -18 197 C-18.99 196.67 -19.98 196.34 -21 196 C-23.58729681 196.50997842 -23.58729681 196.50997842 -26.4375 197.375 C-31.89419985 198.84564715 -37.0626528 199.45015245 -42.69921875 199.69140625 C-43.83810547 199.84416016 -43.83810547 199.84416016 -45 200 C-45.33 200.66 -45.66 201.32 -46 202 C-47.32 202 -48.64 202 -50 202 C-50 202.66 -50 203.32 -50 204 C-51.71484375 205.11328125 -51.71484375 205.11328125 -53.9375 206.3125 C-57.36281715 208.26998658 -57.36281715 208.26998658 -59 211.8125 C-59 212.534375 -59 213.25625 -59 214 C-59.66 214 -60.32 214 -61 214 C-61.28875 214.61875 -61.5775 215.2375 -61.875 215.875 C-63 218 -63 218 -65 220 C-64.63551363 212.71027252 -60.18619578 208.34616133 -55.4375 203.25 C-48.95158311 198.2465784 -39.97272584 197.02390183 -32.0625 196.1875 C-20.75418886 194.72510971 -11.54655458 189.82632881 -4.35546875 180.91796875 C-1.76129289 177.24724729 -1.67893257 174.02582362 -1.45727539 169.65112305 C-1.41545419 168.82986529 -1.37363298 168.00860754 -1.33054447 167.16246319 C-0.69134202 152.84523328 -0.76602618 138.49751799 -0.69667697 124.16871858 C-0.67453603 119.79122686 -0.64728731 115.41376672 -0.62062073 111.03630066 C-0.57106809 102.77794727 -0.52599337 94.519576 -0.48259836 86.26118821 C-0.43290223 76.8461537 -0.37810612 67.43115093 -0.32291877 58.01614726 C-0.20967472 38.67746108 -0.10271448 19.33874482 0 0 Z " fill="#0067F5" transform="translate(226,282)"/>
<path d="M0 0 C0.66 0.33 1.32 0.66 2 1 C-2.75 4.875 -2.75 4.875 -5 6 C-5 6.66 -5 7.32 -5 8 C-3.57772021 9.20544749 -3.57772021 9.20544749 -1.6875 10.4375 C14.80447595 22.52188592 25.68155283 39.69676746 29 60 C30.04243997 67.74407598 30.13198339 75.42294942 30.09765625 83.2265625 C30.0962413 84.45539154 30.09482635 85.68422058 30.09336853 86.95028687 C30.08780959 90.84188358 30.0752648 94.73342093 30.0625 98.625 C30.05747969 101.27734291 30.05291772 103.92968674 30.04882812 106.58203125 C30.03785364 113.05470746 30.02115684 119.52734949 30 126 C29.67 126 29.34 126 29 126 C28.97494385 124.89825439 28.9498877 123.79650879 28.92407227 122.66137695 C28.66131231 111.21446924 28.37578724 99.7682901 28.06317139 88.32263184 C28.00844504 86.3104999 27.95547801 84.29832026 27.90283203 82.28613281 C28.33413548 63.96768685 28.33413548 63.96768685 22 48 C21.87625 47.13375 21.7525 46.2675 21.625 45.375 C20.93912024 41.67124927 19.62530279 39.01301153 17.83984375 35.734375 C17 34 17 34 17 32 C16.01 31.67 15.02 31.34 14 31 C13.505 28.525 13.505 28.525 13 26 C12.34 26 11.68 26 11 26 C9.51953125 24.4609375 9.51953125 24.4609375 7.8125 22.375 C4.08829174 17.99905529 0.13448207 13.45104414 -5.16015625 11 C-5.76730469 10.67 -6.37445313 10.34 -7 10 C-7.75 7.375 -7.75 7.375 -8 5 C-6.71475739 4.13619741 -5.42157581 3.28419631 -4.125 2.4375 C-3.04605469 1.72400391 -3.04605469 1.72400391 -1.9453125 0.99609375 C-1.30335938 0.66738281 -0.66140625 0.33867187 0 0 Z " fill="#0971F4" transform="translate(258,505)"/>
<path d="M0 0 C-1.34343288 4.03029865 -3.93901421 5.04572584 -7.4375 7.0625 C-11.98604968 9.66368763 -11.98604968 9.66368763 -16 13 C-17.31588996 13.70046829 -18.65285386 14.36170579 -20 15 C-23.88179851 16.98690631 -27.75344277 18.99322706 -31.625 21 C-32.6871875 21.5465625 -33.749375 22.093125 -34.84375 22.65625 C-35.85695313 23.1821875 -36.87015625 23.708125 -37.9140625 24.25 C-38.8417041 24.72953125 -39.7693457 25.2090625 -40.72509766 25.703125 C-43.10092658 26.92486054 -43.10092658 26.92486054 -45 29 C-47.29268629 29.88639172 -49.60920073 30.71188631 -51.9375 31.5 C-55.67696962 32.76840335 -58.71077689 33.80718459 -62 36 C-67.5330471 38.07489266 -73.29054063 39.49751069 -79 41 C-79.63357422 41.16822266 -80.26714844 41.33644531 -80.91992188 41.50976562 C-88.57627386 43.53233699 -96.07117998 45.43365571 -104 46 C-104.33 45.34 -104.66 44.68 -105 44 C-104.42894531 43.89042969 -103.85789062 43.78085937 -103.26953125 43.66796875 C-68.03375828 36.77766656 -35.93424895 23.49410023 -6.44018555 2.94555664 C-2.1915873 0 -2.1915873 0 0 0 Z " fill="#0F9EB8" transform="translate(453,600)"/>
<path d="M0 0 C2.50999017 -0.15702875 4.97971226 -0.15633649 7.49430275 -0.10642052 C8.45059074 -0.10715065 9.40687874 -0.10788078 10.39214516 -0.10863304 C13.55803781 -0.10514515 16.72246547 -0.06622635 19.88810158 -0.02707481 C22.08098993 -0.01775099 24.27388868 -0.01063285 26.46679115 -0.00563622 C32.24238712 0.01346728 38.01735576 0.06259765 43.79270363 0.11788368 C49.68444265 0.16900352 55.5762829 0.19186233 61.4681797 0.21706581 C73.03160658 0.27071257 84.59456757 0.35606642 96.15763283 0.46120644 C96.15763283 0.79120644 96.15763283 1.12120644 96.15763283 1.46120644 C90.78598749 2.35555535 85.60491366 2.61724073 80.16471291 2.63479042 C79.29229454 2.64147743 78.41987617 2.64816444 77.52102089 2.65505409 C75.63807787 2.66903793 73.75511856 2.6809528 71.87215042 2.69100189 C68.89219212 2.70749373 65.91235579 2.73073079 62.93245888 2.75589943 C54.46404069 2.82647754 45.99557562 2.88693283 37.52701759 2.93801308 C32.33824118 2.96978111 27.14961091 3.01103858 21.96095276 3.05820847 C19.9854049 3.07422655 18.0098235 3.08654901 16.03422928 3.09511566 C13.27679099 3.10725356 10.51969794 3.13139323 7.76236916 3.15822792 C6.94618111 3.15881706 6.12999306 3.1594062 5.28907204 3.1600132 C1.45053052 3.20957657 -1.59107768 3.27975801 -4.84236717 5.46120644 C-3.80943763 2.68347021 -3.03037619 0.75860503 0 0 Z " fill="#FE6164" transform="translate(647.8423671722412,753.5387935638428)"/>
<path d="M0 0 C0.76828125 0.16628906 1.5365625 0.33257813 2.328125 0.50390625 C3.26140625 0.70113281 4.1946875 0.89835938 5.15625 1.1015625 C9.97201118 2.27975006 14.26242674 3.55977992 18.328125 6.50390625 C17.668125 6.83390625 17.008125 7.16390625 16.328125 7.50390625 C15.4 7.07078125 14.471875 6.63765625 13.515625 6.19140625 C8.16693875 3.77042195 2.18388901 2.57802985 -3.671875 2.50390625 C-7.38346172 4.29966691 -9.82144143 6.5670959 -12.671875 9.50390625 C-15.45838562 11.93469211 -18.11715966 14.17371855 -21.296875 16.06640625 C-23.85911299 17.61723451 -25.62592056 19.32595475 -27.671875 21.50390625 C-36.85237293 30.99042077 -36.85237293 30.99042077 -42.671875 31.50390625 C-42.671875 32.16390625 -42.671875 32.82390625 -42.671875 33.50390625 C-43.55488281 33.59414063 -44.43789063 33.684375 -45.34765625 33.77734375 C-49.04040044 34.58445353 -50.89963998 35.82536055 -53.859375 38.12890625 C-56.40234375 40.10546875 -56.40234375 40.10546875 -58.671875 41.50390625 C-59.661875 41.17390625 -60.651875 40.84390625 -61.671875 40.50390625 C-60.61226563 39.80523438 -59.55265625 39.1065625 -58.4609375 38.38671875 C-57.07283566 37.46757024 -55.68481926 36.54829269 -54.296875 35.62890625 C-53.59820312 35.16871094 -52.89953125 34.70851563 -52.1796875 34.234375 C-51.509375 33.78964844 -50.8390625 33.34492187 -50.1484375 32.88671875 C-49.53049316 32.47824707 -48.91254883 32.06977539 -48.27587891 31.64892578 C-46.52045485 30.46227482 -46.52045485 30.46227482 -44.671875 28.50390625 C-44.08535156 28.38015625 -43.49882812 28.25640625 -42.89453125 28.12890625 C-39.74734379 27.24393262 -37.69720396 25.48871249 -35.109375 23.50390625 C-34.5841626 23.10236328 -34.0589502 22.70082031 -33.51782227 22.28710938 C-30.00248431 19.58243525 -26.54573755 16.80829407 -23.109375 14.00390625 C-22.21347656 13.27300781 -21.31757813 12.54210937 -20.39453125 11.7890625 C-18.51451035 10.21113965 -16.66967699 8.59066895 -14.85546875 6.9375 C-6.25228758 -0.70844266 -6.25228758 -0.70844266 0 0 Z " fill="#08ABBB" transform="translate(514.671875,558.49609375)"/>
<path d="M0 0 C0.33 0 0.66 0 1 0 C1.04898438 1.02480469 1.09796875 2.04960937 1.1484375 3.10546875 C1.22351071 4.4661706 1.29905655 5.82684644 1.375 7.1875 C1.42140625 8.19780273 1.42140625 8.19780273 1.46875 9.22851562 C1.70236725 13.21947698 2.3415585 16.37215922 4 20 C4.36871088 21.65919896 4.71281674 23.3247643 5 25 C5.66 25 6.32 25 7 25 C7.4125 25.7425 7.825 26.485 8.25 27.25 C11.26316604 31.9849752 15.81211741 34.20585727 21 36 C23.70941793 36.50420661 26.40262918 36.9598256 29.125 37.375 C35.33010879 38.38020764 40.97483259 39.78850911 46.80078125 42.23046875 C49.24092866 43.22018383 49.24092866 43.22018383 53 43 C53.33 43.99 53.66 44.98 54 46 C54.763125 46.45375 55.52625 46.9075 56.3125 47.375 C60.98129671 50.19799336 63.25516483 53.91089742 65 59 C64.319375 58.29875 63.63875 57.5975 62.9375 56.875 C61.96192411 55.91301152 60.98245784 54.95495902 60 54 C59.25556641 53.26136719 59.25556641 53.26136719 58.49609375 52.5078125 C49.81381328 44.43224561 39.29343464 42.11563154 27.96850586 39.87475586 C18.08202899 37.84781396 10.28774668 34.26780306 3.8125 26.3125 C-0.44619037 18.52937621 -1.79748728 10.83370528 -1 2 C-0.67 1.34 -0.34 0.68 0 0 Z " fill="#127BF7" transform="translate(160,503)"/>
<path d="M0 0 C2.69111257 4.03666886 2.55611599 7.26056374 2 12 C0.625 15.0625 0.625 15.0625 -1 17 C-1.66 17 -2.32 17 -3 17 C-3.27199219 17.58523438 -3.54398438 18.17046875 -3.82421875 18.7734375 C-6.67895786 24.17942185 -10.14564094 28.04854698 -16 30 C-16.66 30.99 -17.32 31.98 -18 33 C-18.99 32.67 -19.98 32.34 -21 32 C-23.58729681 32.50997842 -23.58729681 32.50997842 -26.4375 33.375 C-31.89419985 34.84564715 -37.0626528 35.45015245 -42.69921875 35.69140625 C-43.83810547 35.84416016 -43.83810547 35.84416016 -45 36 C-45.33 36.66 -45.66 37.32 -46 38 C-47.32 38 -48.64 38 -50 38 C-50 38.66 -50 39.32 -50 40 C-51.71484375 41.11328125 -51.71484375 41.11328125 -53.9375 42.3125 C-57.36281715 44.26998658 -57.36281715 44.26998658 -59 47.8125 C-59 48.534375 -59 49.25625 -59 50 C-59.66 50 -60.32 50 -61 50 C-61.433125 50.928125 -61.433125 50.928125 -61.875 51.875 C-63 54 -63 54 -65 56 C-64.63551363 48.71027252 -60.18619578 44.34616133 -55.4375 39.25 C-48.95158311 34.2465784 -39.97272584 33.02390183 -32.0625 32.1875 C-20.8648297 30.73941778 -11.62969013 25.89677292 -4.453125 17.11328125 C-1.68557397 13.08842881 -0.72545443 10.15636201 -0.375 5.25 C-0.30023438 4.26515625 -0.22546875 3.2803125 -0.1484375 2.265625 C-0.07496094 1.14414062 -0.07496094 1.14414062 0 0 Z " fill="#0D77F5" transform="translate(226,446)"/>
<path d="M0 0 C1.36121095 0.00084829 2.72242326 0.0003672 4.08363342 -0.00132751 C7.74414561 -0.00218103 11.40435713 0.01533897 15.06480002 0.03639436 C18.90311352 0.05526981 22.74143546 0.0569201 26.57978821 0.06047058 C33.83267776 0.06975936 41.08543012 0.09432977 48.33825952 0.12451905 C56.60194134 0.15816226 64.86563005 0.1745739 73.12936342 0.18960536 C90.11407202 0.22088253 107.09864743 0.27358071 124.08325195 0.34057617 C124.08325195 0.67057617 124.08325195 1.00057617 124.08325195 1.34057617 C123.06394403 1.3441587 123.06394403 1.3441587 122.02404404 1.34781361 C105.44615771 1.40709537 88.86843338 1.482729 72.29070663 1.57629108 C64.27365183 1.62114875 56.25664045 1.6605862 48.23950195 1.68701172 C41.2471617 1.7100734 34.25496003 1.74356168 27.26272988 1.78927773 C23.56455486 1.8131005 19.86651615 1.8319006 16.1682663 1.83819008 C12.0274268 1.84542848 7.88705827 1.87595755 3.74633789 1.90820312 C2.53648224 1.90676804 1.32662659 1.90533295 0.08010864 1.90385437 C-6.7315716 1.97851031 -12.74006368 2.77289711 -19.28380966 4.69952679 C-21.93237823 5.3443817 -24.20281075 5.45630864 -26.91674805 5.34057617 C-20.46130801 -1.11486387 -8.42896274 -0.07268102 0 0 Z " fill="#0073F5" transform="translate(307.916748046875,206.659423828125)"/>
<path d="M0 0 C0 0.66 0 1.32 0 2 C-5.625 5 -5.625 5 -9 5 C-9.33 6.32 -9.66 7.64 -10 9 C-10.99 9 -11.98 9 -13 9 C-13.33 9.66 -13.66 10.32 -14 11 C-15.2065625 11.556875 -15.2065625 11.556875 -16.4375 12.125 C-24.66193011 16.06876287 -31.0398663 22.47319394 -36 30 C-37.0209375 31.485 -37.0209375 31.485 -38.0625 33 C-38.701875 33.99 -39.34125 34.98 -40 36 C-40.63615234 36.9590625 -40.63615234 36.9590625 -41.28515625 37.9375 C-43.84481891 41.87773872 -45.68557706 45.45007445 -47 50 C-48.72972973 54.86486486 -48.72972973 54.86486486 -51 56 C-47.96023576 37.76141454 -35.08807668 21.17749576 -20.31494141 10.4987793 C-5.35866433 0 -5.35866433 0 0 0 Z " fill="#0F7AF7" transform="translate(280,212)"/>
<path d="M0 0 C0.6290625 0.19335938 1.258125 0.38671875 1.90625 0.5859375 C4.59995599 1.4054083 7.29900706 2.20490251 10 3 C11.258125 3.37125 12.51625 3.7425 13.8125 4.125 C23.87413624 6.54198543 34.61085776 6.16258495 44.89575195 6.13037109 C46.95987063 6.12494115 49.02377789 6.13039234 51.08789062 6.13671875 C52.42187547 6.13605892 53.75586019 6.13477974 55.08984375 6.1328125 C56.86669556 6.13112061 56.86669556 6.13112061 58.67944336 6.12939453 C61.87098171 6.00502755 64.86631666 5.59998462 68 5 C68 5.66 68 6.32 68 7 C68.99 7.495 68.99 7.495 70 8 C48.39290314 9.99669542 23.26950536 12.17186957 3 3 C1.16796875 1.37109375 1.16796875 1.37109375 0 0 Z " fill="#139CC3" transform="translate(272,699)"/>
<path d="M0 0 C1.07310858 3.27185553 0.89263102 5.42947592 0.0625 8.75 C-0.13214844 9.54921875 -0.32679688 10.3484375 -0.52734375 11.171875 C-0.68332031 11.77515625 -0.83929687 12.3784375 -1 13 C-1.66 13 -2.32 13 -3 13 C-3.185625 14.19625 -3.37125 15.3925 -3.5625 16.625 C-5.67390245 26.26401117 -11.27944887 36.99607173 -17.8125 44.375 C-18.58400391 45.25478516 -18.58400391 45.25478516 -19.37109375 46.15234375 C-19.90863281 46.76207031 -20.44617188 47.37179687 -21 48 C-22.12689277 49.31087526 -23.25196903 50.62331482 -24.375 51.9375 C-25.25 52.95833333 -26.125 53.97916667 -27 55 C-27.66 54.67 -28.32 54.34 -29 54 C-27.948125 52.83597656 -27.948125 52.83597656 -26.875 51.6484375 C-13.34529048 36.36948538 -6.19083556 19.28379416 0 0 Z " fill="#FE644D" transform="translate(597,583)"/>
<path d="M0 0 C0.66 0 1.32 0 2 0 C2.64834654 1.269553 3.29357815 2.54069706 3.9375 3.8125 C4.29714844 4.52019531 4.65679688 5.22789062 5.02734375 5.95703125 C8.12683908 12.46721623 7.45547225 18.17429726 5.4375 24.875 C2.38694198 33.44252466 -3.09841491 40.20423535 -9 47 C-9.495 45.515 -9.495 45.515 -10 44 C-8.9609375 42.45703125 -8.9609375 42.45703125 -7.375 40.8125 C-1.28031299 34.24887422 -1.28031299 34.24887422 1 26 C1.66 25.67 2.32 25.34 3 25 C5.35387317 17.93838049 4.51449202 9.91485305 2 3 C1.34 3 0.68 3 0 3 C0 2.01 0 1.02 0 0 Z " fill="#11A0B8" transform="translate(536,569)"/>
<path d="M0 0 C4.19960604 0.09374801 8.39866312 0.19988805 12.59765625 0.31738281 C14.02530398 0.35560024 15.45304563 0.39046572 16.88085938 0.421875 C18.93653868 0.46768401 20.99157554 0.5256498 23.046875 0.5859375 C24.28276367 0.6173584 25.51865234 0.6487793 26.79199219 0.68115234 C30 1 30 1 34 3 C22.45 3 10.9 3 -1 3 C-0.67 2.01 -0.34 1.02 0 0 Z " fill="#FE595D" transform="translate(606,813)"/>
<path d="M0 0 C0.99 0.33 1.98 0.66 3 1 C-5.24785273 5.89542807 -13.48419185 10.43131282 -22.375 14.0625 C-23.10581787 14.36099854 -23.83663574 14.65949707 -24.58959961 14.96704102 C-29.70566738 17 -29.70566738 17 -32 17 C-32 16.34 -32 15.68 -32 15 C-30.97261719 14.63648438 -29.94523437 14.27296875 -28.88671875 13.8984375 C-19.52067856 10.52340015 -10.720202 6.80491763 -2.38671875 1.26171875 C-1.59910156 0.84535156 -0.81148438 0.42898438 0 0 Z " fill="#A48179" transform="translate(503,796)"/>
<path d="M0 0 C0.495 0.99 0.495 0.99 1 2 C-3.05086701 3.350289 -6.94125306 3.41347839 -11.1875 3.625 C-12.07211914 3.67003662 -12.95673828 3.71507324 -13.86816406 3.76147461 C-21.97875596 4.11142031 -29.91828399 3.73367534 -38 3 C-38 2.67 -38 2.34 -38 2 C-36.92685547 1.96241577 -36.92685547 1.96241577 -35.83203125 1.92407227 C-32.5545453 1.80720848 -29.27728384 1.68489577 -26 1.5625 C-24.87464844 1.52318359 -23.74929688 1.48386719 -22.58984375 1.44335938 C-15.08383992 1.15804344 -7.48049433 -0.23376545 0 0 Z " fill="#27A9C3" transform="translate(345,645)"/>
<path d="M0 0 C1 3 1 3 -0.1171875 5.78515625 C-5.28928476 15.42824425 -11.25434784 23.23362701 -20 30 C-19.42232857 24.80095713 -15.24200658 22.11462129 -11.5625 18.8125 C-6.58327996 13.34750239 -3.15312766 6.65660284 0 0 Z " fill="#0872F7" transform="translate(281,475)"/>
<path d="M0 0 C0.66 0.33 1.32 0.66 2 1 C-13.51515152 9.32323232 -13.51515152 9.32323232 -21 13 C-21.72058594 13.38285156 -22.44117188 13.76570313 -23.18359375 14.16015625 C-25.09322032 15.16432708 -27.04400163 16.08944903 -29 17 C-29.66 16.67 -30.32 16.34 -31 16 C-23.0020164 11.36516325 -14.98217128 6.83593489 -6.625 2.875 C-5.98941162 2.56812256 -5.35382324 2.26124512 -4.69897461 1.94506836 C-3.16113084 1.23178314 -1.58287275 0.60683862 0 0 Z " fill="#FE484D" transform="translate(598,351)"/>
<path d="M0 0 C0.66 0.33 1.32 0.66 2 1 C-3.72241197 4.92714547 -9.35238282 7.35208851 -15.86328125 9.7265625 C-18.72402119 10.88795879 -21.11796568 12.18069868 -23.6875 13.875 C-24.780625 14.57625 -25.87375 15.2775 -27 16 C-27.66 15.67 -28.32 15.34 -29 15 C-21.29451014 9.46346284 -13.25848917 5.53959259 -4.375 2.25 C-1.20312202 1.34228874 -1.20312202 1.34228874 0 0 Z " fill="#FE484D" transform="translate(860,535)"/>
<path d="M0 0 C2.62386487 3.06117568 3 3.73173127 3 8 C3.66 8.33 4.32 8.66 5 9 C5.309375 9.804375 5.61875 10.60875 5.9375 11.4375 C6.84547289 14.29863959 6.84547289 14.29863959 10 16 C10.5625 17.9375 10.5625 17.9375 11 20 C11.66 20.99 12.32 21.98 13 23 C12.67 23.99 12.34 24.98 12 26 C0 7.15533981 0 7.15533981 0 0 Z " fill="#0F7BF4" transform="translate(229,651)"/>
<path d="M0 0 C0 0.99 0 1.98 0 3 C-2.00592996 4.72914734 -3.9813752 6.27326434 -6.125 7.8125 C-10.79061338 11.26734028 -15.05381331 14.71556874 -19 19 C-19.66 18.67 -20.32 18.34 -21 18 C-14.53814339 11.3296964 -7.68181 5.23016851 0 0 Z " fill="#FE494C" transform="translate(522,398)"/>
<path d="M0 0 C0 6.65338437 -8.01303732 13.12712734 -12.5625 17.6875 C-13.366875 18.450625 -14.17125 19.21375 -15 20 C-15.66 19.67 -16.32 19.34 -17 19 C-16.35933594 18.29875 -15.71867187 17.5975 -15.05859375 16.875 C-9.97762276 11.3018336 -4.93526783 5.70333931 0 0 Z " fill="#F6664D" transform="translate(523,690)"/>
<path d="M0 0 C0.66 0 1.32 0 2 0 C0.30028018 4.05547185 -2.48831162 7.19198652 -5.3125 10.5 C-5.78623047 11.06847656 -6.25996094 11.63695312 -6.74804688 12.22265625 C-9.58109808 15.56340883 -12.4637181 18.37194351 -16 21 C-14.65729678 18.06598967 -13.13488676 15.80853825 -10.99609375 13.3984375 C-10.42052734 12.74359375 -9.84496094 12.08875 -9.25195312 11.4140625 C-8.65318359 10.74117187 -8.05441406 10.06828125 -7.4375 9.375 C-6.24685689 8.03027366 -5.05796763 6.68399178 -3.87109375 5.3359375 C-3.34443115 4.74345215 -2.81776855 4.1509668 -2.27514648 3.54052734 C-0.91142412 2.01102524 -0.91142412 2.01102524 0 0 Z " fill="#FE614A" transform="translate(566,639)"/>
<path d="M0 0 C0 0.99 0 1.98 0 3 C-3.49169969 6.37906421 -7.60200103 8.47653812 -11.83984375 10.76171875 C-14.45361081 12.26002645 -16.73063718 14.02345819 -19 16 C-19.66 15.67 -20.32 15.34 -21 15 C-14.18946627 9.65331575 -7.47728543 4.39840319 0 0 Z " fill="#FE444A" transform="translate(557,373)"/>
<path d="M0 0 C0.33 0.99 0.66 1.98 1 3 C1.66 3 2.32 3 3 3 C3 3.66 3 4.32 3 5 C2.11699219 5.09023438 1.23398437 5.18046875 0.32421875 5.2734375 C-3.36852544 6.08054728 -5.22776498 7.3214543 -8.1875 9.625 C-10.73046875 11.6015625 -10.73046875 11.6015625 -13 13 C-13.99 12.67 -14.98 12.34 -16 12 C-14.92878906 11.30132813 -13.85757812 10.60265625 -12.75390625 9.8828125 C-11.35661033 8.96378565 -9.95948364 8.04450147 -8.5625 7.125 C-7.50192383 6.43470703 -7.50192383 6.43470703 -6.41992188 5.73046875 C-5.74638672 5.28574219 -5.07285156 4.84101562 -4.37890625 4.3828125 C-3.7557251 3.97434082 -3.13254395 3.56586914 -2.49047852 3.14501953 C-0.84455373 2.05314374 -0.84455373 2.05314374 0 0 Z " fill="#13A0B9" transform="translate(469,587)"/>
<path d="M0 0 C0.66 0.33 1.32 0.66 2 1 C-2.75 4.875 -2.75 4.875 -5 6 C-5 6.66 -5 7.32 -5 8 C-3.03852126 9.38938077 -1.03833424 10.7260411 1 12 C-2 13 -2 13 -4.625 11.875 C-7 10 -7 10 -7.8125 7.3125 C-7.9053125 6.1678125 -7.9053125 6.1678125 -8 5 C-6.71475739 4.13619741 -5.42157581 3.28419631 -4.125 2.4375 C-3.04605469 1.72400391 -3.04605469 1.72400391 -1.9453125 0.99609375 C-1.30335938 0.66738281 -0.66140625 0.33867187 0 0 Z " fill="#127AF9" transform="translate(258,505)"/>
<path d="M0 0 C0.33 0.66 0.66 1.32 1 2 C-2.239447 8.15696139 -6.37653694 13.81611717 -11 19 C-11 15.72948279 -10.61778212 15.06237615 -8.84765625 12.4609375 C-8.40099609 11.79835938 -7.95433594 11.13578125 -7.49414062 10.453125 C-7.02169922 9.76734375 -6.54925781 9.0815625 -6.0625 8.375 C-5.59392578 7.68148437 -5.12535156 6.98796875 -4.64257812 6.2734375 C-1.19744966 1.19744966 -1.19744966 1.19744966 0 0 Z " fill="#FE4A4E" transform="translate(619,794)"/>
<path d="M0 0 C0.33 0.99 0.66 1.98 1 3 C-0.30135125 4.69175663 -1.63755204 6.35704805 -3 8 C-4.20602019 11.39333631 -4.10134095 14.67663237 -4.0625 18.25 C-4.05347656 19.32765625 -4.04445313 20.4053125 -4.03515625 21.515625 C-4.02355469 22.33546875 -4.01195312 23.1553125 -4 24 C-6.63534505 21.36465495 -6.32850126 20.04840007 -6.375 16.375 C-6.27895193 9.71566686 -4.82878201 4.82878201 0 0 Z " fill="#FE3E42" transform="translate(500,417)"/>
<path d="M0 0 C1.4540625 0.0309375 1.4540625 0.0309375 2.9375 0.0625 C0.1133528 2.8866472 -3.27231022 3.59923561 -7 4.75 C-7.72896484 4.98783203 -8.45792969 5.22566406 -9.20898438 5.47070312 C-14.6943849 7.18520503 -14.6943849 7.18520503 -18.0625 6.0625 C-15.49773996 3.49773996 -13.5151075 3.30022114 -10 2.5 C-6.42889762 1.68047234 -3.46622296 0.07073924 0 0 Z " fill="#FE494D" transform="translate(664.0625,392.9375)"/>
<path d="M0 0 C0.99 0.33 1.98 0.66 3 1 C0.41994017 3.99358859 -2.54324813 5.45566888 -6.0625 7.1875 C-7.12597656 7.71730469 -8.18945312 8.24710938 -9.28515625 8.79296875 C-12 10 -12 10 -14 10 C-14 9.34 -14 8.68 -14 8 C-13.15695312 7.59007812 -12.31390625 7.18015625 -11.4453125 6.7578125 C-10.34960938 6.21898437 -9.25390625 5.68015625 -8.125 5.125 C-6.48917969 4.32449219 -6.48917969 4.32449219 -4.8203125 3.5078125 C-1.96117453 2.15464063 -1.96117453 2.15464063 0 0 Z " fill="#738B8E" transform="translate(474,743)"/>
<path d="M0 0 C-1.50349377 3.66786393 -3.63728792 5.68910393 -6.625 8.25 C-7.44226563 8.95640625 -8.25953125 9.6628125 -9.1015625 10.390625 C-9.72804688 10.92171875 -10.35453125 11.4528125 -11 12 C-11.66 11.67 -12.32 11.34 -13 11 C-11.21427748 9.16052663 -9.42197551 7.32842259 -7.625 5.5 C-7.11710937 4.97535156 -6.60921875 4.45070313 -6.0859375 3.91015625 C-2.2265625 0 -2.2265625 0 0 0 Z " fill="#AE7E72" transform="translate(489,731)"/>
<path d="M0 0 C0.33 1.32 0.66 2.64 1 4 C-1.125 6.375 -1.125 6.375 -4 9 C-5.7195803 10.96059964 -7.35330066 12.97691224 -9 15 C-9.66 14.67 -10.32 14.34 -11 14 C-7.37 9.38 -3.74 4.76 0 0 Z " fill="#5236B9" transform="translate(430,330)"/>
<path d="M0 0 C-1.89385437 0.50744423 -3.79018666 1.00564574 -5.6875 1.5 C-6.74324219 1.7784375 -7.79898437 2.056875 -8.88671875 2.34375 C-11.71142672 2.9391715 -14.12836708 3.12786492 -17 3 C-14.59998502 0.59998502 -12.87082731 0.17240669 -9.625 -0.75 C-8.66851562 -1.03359375 -7.71203125 -1.3171875 -6.7265625 -1.609375 C-3.67805518 -2.0461239 -2.53460134 -1.65770135 0 0 Z " fill="#0D78F5" transform="translate(298,209)"/>
<path d="M0 0 C-1 2 -1 2 -2.8203125 2.66796875 C-7.94991393 3.82430263 -11.84852751 4.09605798 -17 3 C-17 2.67 -17 2.34 -17 2 C-14.72954771 1.66408104 -12.45862367 1.33134935 -10.1875 1 C-8.29064453 0.7215625 -8.29064453 0.7215625 -6.35546875 0.4375 C-3 0 -3 0 0 0 Z " fill="#4396A3" transform="translate(460,752)"/>
<path d="M0 0 C2.07324138 3.10986207 2.27392186 3.89108387 2.25 7.4375 C2.25515625 8.19933594 2.2603125 8.96117187 2.265625 9.74609375 C1.9747292 12.21443018 1.22975656 13.857686 0 16 C-1.16306443 12.45049966 -0.92365049 9.44176052 -0.5625 5.75 C-0.46066406 4.67234375 -0.35882813 3.5946875 -0.25390625 2.484375 C-0.17011719 1.66453125 -0.08632812 0.8446875 0 0 Z " fill="#0F81F6" transform="translate(226,446)"/>
<path d="M0 0 C-1 3 -1 3 -3.06640625 4.16796875 C-3.89011719 4.50441406 -4.71382813 4.84085938 -5.5625 5.1875 C-6.38878906 5.53167969 -7.21507812 5.87585938 -8.06640625 6.23046875 C-8.70449219 6.48441406 -9.34257812 6.73835937 -10 7 C-9.67 6.01 -9.34 5.02 -9 4 C-8.34 4 -7.68 4 -7 4 C-6.67 3.34 -6.34 2.68 -6 2 C-3.85118612 0.75230162 -2.50320403 0 0 0 Z " fill="#16A2BB" transform="translate(440,678)"/>
<path d="M0 0 C4.29 0 8.58 0 13 0 C6.42857143 3.28571429 6.42857143 3.28571429 2 2 C1.34 2 0.68 2 0 2 C0 1.34 0 0.68 0 0 Z " fill="#1B98A9" transform="translate(434,755)"/>
<path d="M0 0 C0 0.99 0 1.98 0 3 C-2.25 5.25 -2.25 5.25 -5 7 C-6.32 6.67 -7.64 6.34 -9 6 C-6.03 4.02 -3.06 2.04 0 0 Z " fill="#FD4D51" transform="translate(557,373)"/>
<path d="M0 0 C0 0.66 0 1.32 0 2 C-1.45381897 2.69699552 -2.91322953 3.38233866 -4.375 4.0625 C-5.18710937 4.44535156 -5.99921875 4.82820312 -6.8359375 5.22265625 C-7.55007813 5.47917969 -8.26421875 5.73570312 -9 6 C-9.66 5.67 -10.32 5.34 -11 5 C-9.54462432 4.16151196 -8.08559627 3.32936066 -6.625 2.5 C-5.81289063 2.0359375 -5.00078125 1.571875 -4.1640625 1.09375 C-2 0 -2 0 0 0 Z " fill="#0773F7" transform="translate(280,212)"/>
<path d="M0 0 C0.33 0.66 0.66 1.32 1 2 C-0.98 4.31 -2.96 6.62 -5 9 C-5.66 8.67 -6.32 8.34 -7 8 C-4.69 5.36 -2.38 2.72 0 0 Z " fill="#FE614A" transform="translate(548,661)"/>
<path d="M0 0 C0.33 0.99 0.66 1.98 1 3 C-0.9375 5.6875 -0.9375 5.6875 -3 8 C-3.66 7.67 -4.32 7.34 -5 7 C-3.35 4.69 -1.7 2.38 0 0 Z " fill="#FE4D50" transform="translate(642,760)"/>
<path d="M0 0 C0.66 0.33 1.32 0.66 2 1 C-0.31 3.31 -2.62 5.62 -5 8 C-5.66 7.67 -6.32 7.34 -7 7 C-4.66666667 4.66666667 -2.33333333 2.33333333 0 0 Z " fill="#FE474B" transform="translate(782,519)"/>
<path d="M0 0 C0.33 0.99 0.66 1.98 1 3 C-1.31 4.98 -3.62 6.96 -6 9 C-4.25618453 5.51236907 -2.47193291 2.96631949 0 0 Z " fill="#5132B7" transform="translate(437,321)"/>
</svg>
